<svg preserveAspectRatio="none" width="100%" height="100%" overflow="visible" style="display: block;" viewBox="0 0 150 150" fill="none" xmlns="http://www.w3.org/2000/svg">
<g id="QRMark">
<g id="Group">
<path id="Vector" d="M47.6341 13.6341H16.122C14.748 13.6341 13.6341 14.748 13.6341 16.122V47.6341C13.6341 49.0081 14.748 50.122 16.122 50.122H47.6341C49.0081 50.122 50.122 49.0081 50.122 47.6341V16.122C50.122 14.748 49.0081 13.6341 47.6341 13.6341Z" stroke="var(--stroke-0, #F2E4CE)" stroke-width="3.64878"/>
<path id="Vector_2" d="M41.8293 21.9268H21.9268V41.8293H41.8293V21.9268Z" fill="var(--fill-0, #F2E4CE)"/>
</g>
<g id="Group_2">
<path id="Vector_3" d="M133.878 13.6341H102.366C100.992 13.6341 99.8781 14.748 99.8781 16.122V47.6341C99.8781 49.0081 100.992 50.122 102.366 50.122H133.878C135.252 50.122 136.366 49.0081 136.366 47.6341V16.122C136.366 14.748 135.252 13.6341 133.878 13.6341Z" stroke="var(--stroke-0, #F2E4CE)" stroke-width="3.64878"/>
<path id="Vector_4" d="M128.073 21.9268H108.171V41.8293H128.073V21.9268Z" fill="var(--fill-0, #F2E4CE)"/>
</g>
<g id="Group_3">
<path id="Vector_5" d="M47.6341 99.8781H16.122C14.748 99.8781 13.6341 100.992 13.6341 102.366V133.878C13.6341 135.252 14.748 136.366 16.122 136.366H47.6341C49.0081 136.366 50.122 135.252 50.122 133.878V102.366C50.122 100.992 49.0081 99.8781 47.6341 99.8781Z" stroke="var(--stroke-0, #F2E4CE)" stroke-width="3.64878"/>
<path id="Vector_6" d="M41.8293 108.171H21.9268V128.073H41.8293V108.171Z" fill="var(--fill-0, #F2E4CE)"/>
</g>
<path id="Vector_7" d="M71.6829 13.6341H63.3902V21.9268H71.6829V13.6341Z" fill="var(--fill-0, #F2E4CE)"/>
<path id="Vector_8" d="M81.6341 13.6341H73.3415V21.9268H81.6341V13.6341Z" fill="var(--fill-0, #F2E4CE)"/>
<path id="Vector_9" d="M71.6829 25.2439H63.3902V33.5366H71.6829V25.2439Z" fill="var(--fill-0, #F2E4CE)"/>
<path id="Vector_10" d="M91.5854 25.2439H83.2927V33.5366H91.5854V25.2439Z" fill="var(--fill-0, #F2E4CE)"/>
<path id="Vector_11" d="M81.6341 38.5122H73.3415V46.8049H81.6341V38.5122Z" fill="var(--fill-0, #F2E4CE)"/>
<path id="Vector_12" d="M71.6829 63.3902H63.3902V71.6829H71.6829V63.3902Z" fill="var(--fill-0, #F2E4CE)"/>
<path id="Vector_13" d="M81.6341 63.3902H73.3415V71.6829H81.6341V63.3902Z" fill="var(--fill-0, #F2E4CE)"/>
<path id="Vector_14" d="M91.5854 63.3902H83.2927V71.6829H91.5854V63.3902Z" fill="var(--fill-0, #F2E4CE)"/>
<path id="Vector_15" d="M101.537 63.3902H93.2439V71.6829H101.537V63.3902Z" fill="var(--fill-0, #F2E4CE)"/>
<path id="Vector_16" d="M111.488 63.3902H103.195V71.6829H111.488V63.3902Z" fill="var(--fill-0, #F2E4CE)"/>
<path id="Vector_17" d="M121.439 63.3902H113.146V71.6829H121.439V63.3902Z" fill="var(--fill-0, #F2E4CE)"/>
<path id="Vector_18" d="M71.6829 73.3415H63.3902V81.6341H71.6829V73.3415Z" fill="var(--fill-0, #F2E4CE)"/>
<path id="Vector_19" d="M91.5854 73.3415H83.2927V81.6341H91.5854V73.3415Z" fill="var(--fill-0, #F2E4CE)"/>
<path id="Vector_20" d="M111.488 73.3415H103.195V81.6341H111.488V73.3415Z" fill="var(--fill-0, #F2E4CE)"/>
<path id="Vector_21" d="M121.439 73.3415H113.146V81.6341H121.439V73.3415Z" fill="var(--fill-0, #F2E4CE)"/>
<path id="Vector_22" d="M81.6341 83.2927H73.3415V91.5854H81.6341V83.2927Z" fill="var(--fill-0, #F2E4CE)"/>
<path id="Vector_23" d="M101.537 83.2927H93.2439V91.5854H101.537V83.2927Z" fill="var(--fill-0, #F2E4CE)"/>
<path id="Vector_24" d="M71.6829 93.2439H63.3902V101.537H71.6829V93.2439Z" fill="var(--fill-0, #F2E4CE)"/>
<path id="Vector_25" d="M91.5854 93.2439H83.2927V101.537H91.5854V93.2439Z" fill="var(--fill-0, #F2E4CE)"/>
<path id="Vector_26" d="M121.439 93.2439H113.146V101.537H121.439V93.2439Z" fill="var(--fill-0, #F2E4CE)"/>
<path id="Vector_27" d="M81.6341 103.195H73.3415V111.488H81.6341V103.195Z" fill="var(--fill-0, #F2E4CE)"/>
<path id="Vector_28" d="M101.537 103.195H93.2439V111.488H101.537V103.195Z" fill="var(--fill-0, #F2E4CE)"/>
<path id="Vector_29" d="M121.439 103.195H113.146V111.488H121.439V103.195Z" fill="var(--fill-0, #F2E4CE)"/>
<path id="Vector_30" d="M71.6829 113.146H63.3902V121.439H71.6829V113.146Z" fill="var(--fill-0, #F2E4CE)"/>
<path id="Vector_31" d="M101.537 113.146H93.2439V121.439H101.537V113.146Z" fill="var(--fill-0, #F2E4CE)"/>
<path id="Vector_32" d="M81.6341 123.098H73.3415V131.39H81.6341V123.098Z" fill="var(--fill-0, #F2E4CE)"/>
<path id="Vector_33" d="M121.439 123.098H113.146V131.39H121.439V123.098Z" fill="var(--fill-0, #F2E4CE)"/>
<path id="Vector_34" d="M91.5854 123.098H83.2927V131.39H91.5854V123.098Z" fill="var(--fill-0, #F2E4CE)"/>
<path id="Vector_35" d="M111.488 133.049H103.195V141.341H111.488V133.049Z" fill="var(--fill-0, #F2E4CE)"/>
<path id="Vector_36" d="M21.9268 60.0732H13.6341V68.3659H21.9268V60.0732Z" fill="var(--fill-0, #F2E4CE)"/>
<path id="Vector_37" d="M38.5122 60.0732H30.2195V68.3659H38.5122V60.0732Z" fill="var(--fill-0, #F2E4CE)"/>
<path id="Vector_38" d="M55.0976 60.0732H46.8049V68.3659H55.0976V60.0732Z" fill="var(--fill-0, #F2E4CE)"/>
<path id="Vector_39" d="M68.3659 13.6341H60.0732V21.9268H68.3659V13.6341Z" fill="var(--fill-0, #F2E4CE)"/>
<path id="Vector_40" d="M68.3659 30.2195H60.0732V38.5122H68.3659V30.2195Z" fill="var(--fill-0, #F2E4CE)"/>
<path id="Vector_41" d="M68.3659 46.8049H60.0732V55.0976H68.3659V46.8049Z" fill="var(--fill-0, #F2E4CE)"/>
</g>
</svg>
